<svg height="60" width="60" version="1.1" viewBox="0 0 64 64" xmlns="http://www.w3.org/2000/svg" x="0" y="0" xml:space="preserve"><g><path d="M32 56C18.8 56 8 45.2 8 32S18.8 8 32 8s24 10.8 24 24-10.8 24-24 24zm0-46c-12.1 0-22 9.9-22 22s9.9 22 22 22 22-9.9 22-22-9.9-22-22-22z" fill="#000000" data-original="#000000"></path><path d="M43 41c-.6 0-1-.4-1-1 0-4.4-4.5-8-10-8s-10 3.6-10 8c0 .6-.4 1-1 1s-1-.4-1-1c0-5.5 5.4-10 12-10s12 4.5 12 10c0 .6-.4 1-1 1zM44.036 20a1 1 0 0 0-.63.196l-6.985 4.987a1 1 0 0 0 .896 1.764s.565-.199 1.68-.199c1.114 0 2.697.22 4.544 1.143a1 1 0 1 0 .895-1.79c-1.584-.791-2.956-1.075-4.166-1.209l4.299-3.069a1 1 0 0 0-.533-1.822zM19.965 20a1 1 0 0 1 .629.196l6.986 4.987a1 1 0 0 1-.897 1.764s-.565-.199-1.68-.199c-1.114 0-2.697.22-4.544 1.143a1 1 0 1 1-.894-1.79c1.584-.791 2.956-1.075 4.165-1.209l-4.298-3.069a1 1 0 0 1 .533-1.822z" fill="#000000" data-original="#000000"></path></g></svg>